<svg width="303" height="75" viewBox="0 0 303 75" fill="none" xmlns="http://www.w3.org/2000/svg">
<path d="M156.824 27C159.192 27 160.824 27.528 161.72 28.584C162.648 29.608 163.112 31.176 163.112 33.288V56.712C163.112 58.92 162.6 60.52 161.576 61.512C160.552 62.504 158.968 63 156.824 63H139.88V59.736H142.904V30.264H139.88V27H156.824ZM159.176 30.264H146.84V59.736H159.176V30.264ZM168.369 43.704C168.369 40.536 170.017 38.952 173.313 38.952H181.425C182.993 38.952 184.129 39.256 184.833 39.864C185.537 40.472 185.889 41.592 185.889 43.224V47.688L172.209 56.328V59.736H182.097V56.952H185.889V59.496C185.889 60.456 185.585 61.288 184.977 61.992C184.401 62.664 183.425 63 182.049 63H172.209C170.833 63 169.841 62.664 169.233 61.992C168.657 61.288 168.369 60.456 168.369 59.496V43.704ZM172.209 52.44L182.049 46.248V42.264H172.209V52.44ZM198.073 39V42.264H195.721L200.521 59.736L205.417 42.264H203.065V39H211.945V42.264H209.065L203.257 63H197.929L192.073 42.264H189.241V39H198.073Z" fill="#FF0202"/>
<mask id="path-2-outside-1_27_13" maskUnits="userSpaceOnUse" x="1" y="9" width="136" height="39" fill="black">
<rect fill="white" x="1" y="9" width="136" height="39"/>
<path d="M2.88 15.52C2.88 11.84 4.592 10 8.016 10H23.136V18.88H19.296V13.264H6.816V42.736H19.296V31.504L12.624 35.68V32.176L23.136 25.6V46H8.88C6.608 46 5.056 45.584 4.224 44.752C3.328 43.888 2.88 42.32 2.88 40.048V15.52ZM35.3756 42.736H38.4956V46H28.4156V42.736H31.4396V25.264H28.4156V22H35.3756V42.736ZM33.4076 13.168C34.0796 13.168 34.6396 13.424 35.0876 13.936C35.5676 14.416 35.8076 15.008 35.8076 15.712C35.8076 16.384 35.5676 16.96 35.0876 17.44C34.6396 17.888 34.0636 18.112 33.3596 18.112C32.6876 18.112 32.1116 17.888 31.6316 17.44C31.1836 16.96 30.9596 16.384 30.9596 15.712C30.9596 15.008 31.1996 14.416 31.6796 13.936C32.1596 13.424 32.7356 13.168 33.4076 13.168ZM63.7823 42.688V46H56.8223V40.48L48.5183 45.712C47.5263 46.224 46.5823 46.48 45.6863 46.48C44.8223 46.48 44.1183 46.16 43.5742 45.52C43.0623 44.88 42.8063 44.144 42.8063 43.312V26.512C42.8063 25.04 43.0303 24.032 43.4783 23.488C44.2463 22.496 45.4623 22 47.1263 22H56.8223V13.264H53.6543V10H60.7583V42.688H63.7823ZM56.8223 25.264H46.6463V42.976L56.8223 36.64V25.264ZM68.1188 26.704C68.1188 23.536 69.7668 21.952 73.0628 21.952H81.1748C82.7428 21.952 83.8788 22.256 84.5828 22.864C85.2868 23.472 85.6388 24.592 85.6388 26.224V30.688L71.9588 39.328V42.736H81.8468V39.952H85.6388V42.496C85.6388 43.456 85.3348 44.288 84.7268 44.992C84.1508 45.664 83.1748 46 81.7988 46H71.9588C70.5828 46 69.5908 45.664 68.9828 44.992C68.4068 44.288 68.1188 43.456 68.1188 42.496V26.704ZM71.9588 35.44L81.7988 29.248V25.264H71.9588V35.44ZM94.4153 46C92.7833 46 91.6313 45.632 90.9593 44.896C90.2873 44.128 89.9513 43.072 89.9513 41.728V26.272C89.9513 24.992 90.2393 23.968 90.8153 23.2C91.4233 22.4 92.6233 22 94.4153 22H103.295C105.055 22 106.239 22.4 106.847 23.2C107.455 23.968 107.759 24.992 107.759 26.272V41.728C107.759 43.072 107.423 44.128 106.751 44.896C106.079 45.632 104.927 46 103.295 46H94.4153ZM93.8393 42.736H103.871V25.264H93.8393V42.736ZM128.216 21.52C130.712 21.52 131.96 22.752 131.96 25.216V42.736H135.031V46H125.768V42.736H128.072V24.88L118.52 30.88V42.736H120.872V46H111.608V42.736H114.632V25.216H111.608V22H118.52V26.992L126.488 22C127 21.68 127.576 21.52 128.216 21.52Z"/>
</mask>
<path d="M2.88 15.52C2.88 11.84 4.592 10 8.016 10H23.136V18.88H19.296V13.264H6.816V42.736H19.296V31.504L12.624 35.68V32.176L23.136 25.6V46H8.88C6.608 46 5.056 45.584 4.224 44.752C3.328 43.888 2.88 42.32 2.88 40.048V15.52ZM35.3756 42.736H38.4956V46H28.4156V42.736H31.4396V25.264H28.4156V22H35.3756V42.736ZM33.4076 13.168C34.0796 13.168 34.6396 13.424 35.0876 13.936C35.5676 14.416 35.8076 15.008 35.8076 15.712C35.8076 16.384 35.5676 16.96 35.0876 17.44C34.6396 17.888 34.0636 18.112 33.3596 18.112C32.6876 18.112 32.1116 17.888 31.6316 17.44C31.1836 16.96 30.9596 16.384 30.9596 15.712C30.9596 15.008 31.1996 14.416 31.6796 13.936C32.1596 13.424 32.7356 13.168 33.4076 13.168ZM63.7823 42.688V46H56.8223V40.48L48.5183 45.712C47.5263 46.224 46.5823 46.48 45.6863 46.48C44.8223 46.48 44.1183 46.16 43.5742 45.52C43.0623 44.88 42.8063 44.144 42.8063 43.312V26.512C42.8063 25.04 43.0303 24.032 43.4783 23.488C44.2463 22.496 45.4623 22 47.1263 22H56.8223V13.264H53.6543V10H60.7583V42.688H63.7823ZM56.8223 25.264H46.6463V42.976L56.8223 36.64V25.264ZM68.1188 26.704C68.1188 23.536 69.7668 21.952 73.0628 21.952H81.1748C82.7428 21.952 83.8788 22.256 84.5828 22.864C85.2868 23.472 85.6388 24.592 85.6388 26.224V30.688L71.9588 39.328V42.736H81.8468V39.952H85.6388V42.496C85.6388 43.456 85.3348 44.288 84.7268 44.992C84.1508 45.664 83.1748 46 81.7988 46H71.9588C70.5828 46 69.5908 45.664 68.9828 44.992C68.4068 44.288 68.1188 43.456 68.1188 42.496V26.704ZM71.9588 35.44L81.7988 29.248V25.264H71.9588V35.44ZM94.4153 46C92.7833 46 91.6313 45.632 90.9593 44.896C90.2873 44.128 89.9513 43.072 89.9513 41.728V26.272C89.9513 24.992 90.2393 23.968 90.8153 23.2C91.4233 22.4 92.6233 22 94.4153 22H103.295C105.055 22 106.239 22.4 106.847 23.2C107.455 23.968 107.759 24.992 107.759 26.272V41.728C107.759 43.072 107.423 44.128 106.751 44.896C106.079 45.632 104.927 46 103.295 46H94.4153ZM93.8393 42.736H103.871V25.264H93.8393V42.736ZM128.216 21.52C130.712 21.52 131.96 22.752 131.96 25.216V42.736H135.031V46H125.768V42.736H128.072V24.88L118.52 30.88V42.736H120.872V46H111.608V42.736H114.632V25.216H111.608V22H118.52V26.992L126.488 22C127 21.68 127.576 21.52 128.216 21.52Z" fill="#F9F9F9"/>
<path d="M23.136 10H24.136V9H23.136V10ZM23.136 18.88V19.88H24.136V18.88H23.136ZM19.296 18.88H18.296V19.88H19.296V18.88ZM19.296 13.264H20.296V12.264H19.296V13.264ZM6.816 13.264V12.264H5.816V13.264H6.816ZM6.816 42.736H5.816V43.736H6.816V42.736ZM19.296 42.736V43.736H20.296V42.736H19.296ZM19.296 31.504H20.296V29.6984L18.7655 30.6563L19.296 31.504ZM12.624 35.68H11.624V37.4856L13.1545 36.5277L12.624 35.68ZM12.624 32.176L12.0937 31.3282L11.624 31.622V32.176H12.624ZM23.136 25.6H24.136V23.7949L22.6057 24.7522L23.136 25.6ZM23.136 46V47H24.136V46H23.136ZM4.224 44.752L4.93111 44.0449L4.92468 44.0385L4.91814 44.0322L4.224 44.752ZM3.88 15.52C3.88 13.8169 4.27761 12.7259 4.89611 12.0612C5.50197 11.41 6.47737 11 8.016 11V9C6.13063 9 4.53803 9.50997 3.43189 10.6988C2.33839 11.8741 1.88 13.5431 1.88 15.52H3.88ZM8.016 11H23.136V9H8.016V11ZM22.136 10V18.88H24.136V10H22.136ZM23.136 17.88H19.296V19.88H23.136V17.88ZM20.296 18.88V13.264H18.296V18.88H20.296ZM19.296 12.264H6.816V14.264H19.296V12.264ZM5.816 13.264V42.736H7.816V13.264H5.816ZM6.816 43.736H19.296V41.736H6.816V43.736ZM20.296 42.736V31.504H18.296V42.736H20.296ZM18.7655 30.6563L12.0935 34.8323L13.1545 36.5277L19.8265 32.3517L18.7655 30.6563ZM13.624 35.68V32.176H11.624V35.68H13.624ZM13.1543 33.0238L23.6663 26.4478L22.6057 24.7522L12.0937 31.3282L13.1543 33.0238ZM22.136 25.6V46H24.136V25.6H22.136ZM23.136 45H8.88V47H23.136V45ZM8.88 45C6.6552 45 5.46351 44.5773 4.93111 44.0449L3.51689 45.4591C4.64849 46.5907 6.5608 47 8.88 47V45ZM4.91814 44.0322C4.32735 43.4625 3.88 42.2529 3.88 40.048H1.88C1.88 42.3871 2.32865 44.3135 3.52986 45.4718L4.91814 44.0322ZM3.88 40.048V15.52H1.88V40.048H3.88ZM35.3756 42.736H34.3756V43.736H35.3756V42.736ZM38.4956 42.736H39.4956V41.736H38.4956V42.736ZM38.4956 46V47H39.4956V46H38.4956ZM28.4156 46H27.4156V47H28.4156V46ZM28.4156 42.736V41.736H27.4156V42.736H28.4156ZM31.4396 42.736V43.736H32.4396V42.736H31.4396ZM31.4396 25.264H32.4396V24.264H31.4396V25.264ZM28.4156 25.264H27.4156V26.264H28.4156V25.264ZM28.4156 22V21H27.4156V22H28.4156ZM35.3756 22H36.3756V21H35.3756V22ZM35.0876 13.936L34.335 14.5945L34.357 14.6196L34.3805 14.6431L35.0876 13.936ZM35.0876 17.44L34.3805 16.7329L35.0876 17.44ZM31.6316 17.44L30.9006 18.1223L30.9241 18.1475L30.9493 18.1711L31.6316 17.44ZM31.6796 13.936L32.3867 14.6431L32.3981 14.6317L32.4092 14.6199L31.6796 13.936ZM35.3756 43.736H38.4956V41.736H35.3756V43.736ZM37.4956 42.736V46H39.4956V42.736H37.4956ZM38.4956 45H28.4156V47H38.4956V45ZM29.4156 46V42.736H27.4156V46H29.4156ZM28.4156 43.736H31.4396V41.736H28.4156V43.736ZM32.4396 42.736V25.264H30.4396V42.736H32.4396ZM31.4396 24.264H28.4156V26.264H31.4396V24.264ZM29.4156 25.264V22H27.4156V25.264H29.4156ZM28.4156 23H35.3756V21H28.4156V23ZM34.3756 22V42.736H36.3756V22H34.3756ZM33.4076 14.168C33.7872 14.168 34.0742 14.2964 34.335 14.5945L35.8402 13.2775C35.205 12.5516 34.3721 12.168 33.4076 12.168V14.168ZM34.3805 14.6431C34.6654 14.9279 34.8076 15.2622 34.8076 15.712H36.8076C36.8076 14.7538 36.4699 13.9041 35.7947 13.2289L34.3805 14.6431ZM34.8076 15.712C34.8076 16.1158 34.6751 16.4383 34.3805 16.7329L35.7947 18.1471C36.4601 17.4817 36.8076 16.6522 36.8076 15.712H34.8076ZM34.3805 16.7329C34.1417 16.9717 33.8307 17.112 33.3596 17.112V19.112C34.2965 19.112 35.1375 18.8043 35.7947 18.1471L34.3805 16.7329ZM33.3596 17.112C32.9343 17.112 32.604 16.9797 32.3139 16.7089L30.9493 18.1711C31.6192 18.7963 32.4409 19.112 33.3596 19.112V17.112ZM32.3627 16.7577C32.092 16.4676 31.9596 16.1373 31.9596 15.712H29.9596C29.9596 16.6307 30.2753 17.4524 30.9006 18.1223L32.3627 16.7577ZM31.9596 15.712C31.9596 15.2622 32.1019 14.9279 32.3867 14.6431L30.9725 13.2289C30.2974 13.9041 29.9596 14.7538 29.9596 15.712H31.9596ZM32.4092 14.6199C32.7096 14.2995 33.0255 14.168 33.4076 14.168V12.168C32.4457 12.168 31.6097 12.5485 30.9501 13.2521L32.4092 14.6199ZM63.7822 42.688H64.7822V41.688H63.7822V42.688ZM63.7822 46V47H64.7822V46H63.7822ZM56.8223 46H55.8223V47H56.8223V46ZM56.8223 40.48H57.8223V38.668L56.2892 39.6339L56.8223 40.48ZM48.5182 45.712L48.9769 46.6006L49.015 46.5809L49.0513 46.5581L48.5182 45.712ZM43.5742 45.52L42.7934 46.1447L42.8027 46.1563L42.8123 46.1676L43.5742 45.52ZM43.4782 23.488L44.2502 24.1237L44.2598 24.1121L44.269 24.1002L43.4782 23.488ZM56.8223 22V23H57.8223V22H56.8223ZM56.8223 13.264H57.8223V12.264H56.8223V13.264ZM53.6543 13.264H52.6543V14.264H53.6543V13.264ZM53.6543 10V9H52.6543V10H53.6543ZM60.7583 10H61.7583V9H60.7583V10ZM60.7583 42.688H59.7583V43.688H60.7583V42.688ZM56.8223 25.264H57.8223V24.264H56.8223V25.264ZM46.6463 25.264V24.264H45.6463V25.264H46.6463ZM46.6463 42.976H45.6463V44.7766L47.1748 43.8249L46.6463 42.976ZM56.8223 36.64L57.3508 37.4889L57.8223 37.1954V36.64H56.8223ZM62.7822 42.688V46H64.7822V42.688H62.7822ZM63.7822 45H56.8223V47H63.7822V45ZM57.8223 46V40.48H55.8223V46H57.8223ZM56.2892 39.6339L47.9852 44.8659L49.0513 46.5581L57.3553 41.3261L56.2892 39.6339ZM48.0596 44.8234C47.1752 45.2798 46.3882 45.48 45.6862 45.48V47.48C46.7763 47.48 47.8773 47.1682 48.9769 46.6006L48.0596 44.8234ZM45.6862 45.48C45.106 45.48 44.684 45.2816 44.3362 44.8724L42.8123 46.1676C43.5525 47.0384 44.5385 47.48 45.6862 47.48V45.48ZM44.3551 44.8953C43.9873 44.4355 43.8063 43.9207 43.8063 43.312H41.8063C41.8063 44.3673 42.1372 45.3245 42.7934 46.1447L44.3551 44.8953ZM43.8063 43.312V26.512H41.8063V43.312H43.8063ZM43.8063 26.512C43.8063 25.063 44.0428 24.3756 44.2502 24.1237L42.7063 22.8523C42.0177 23.6884 41.8063 25.017 41.8063 26.512H43.8063ZM44.269 24.1002C44.7895 23.4278 45.6625 23 47.1263 23V21C45.262 21 43.703 21.5642 42.6875 22.8758L44.269 24.1002ZM47.1263 23H56.8223V21H47.1263V23ZM57.8223 22V13.264H55.8223V22H57.8223ZM56.8223 12.264H53.6543V14.264H56.8223V12.264ZM54.6543 13.264V10H52.6543V13.264H54.6543ZM53.6543 11H60.7583V9H53.6543V11ZM59.7583 10V42.688H61.7583V10H59.7583ZM60.7583 43.688H63.7822V41.688H60.7583V43.688ZM56.8223 24.264H46.6463V26.264H56.8223V24.264ZM45.6463 25.264V42.976H47.6463V25.264H45.6463ZM47.1748 43.8249L57.3508 37.4889L56.2937 35.7911L46.1177 42.1271L47.1748 43.8249ZM57.8223 36.64V25.264H55.8223V36.64H57.8223ZM84.5827 22.864L83.9291 23.6208V23.6208L84.5827 22.864ZM85.6387 30.688L86.1727 31.5335L86.6387 31.2392V30.688H85.6387ZM71.9587 39.328L71.4248 38.4825L70.9587 38.7768V39.328H71.9587ZM71.9587 42.736H70.9587V43.736H71.9587V42.736ZM81.8467 42.736V43.736H82.8467V42.736H81.8467ZM81.8467 39.952V38.952H80.8467V39.952H81.8467ZM85.6387 39.952H86.6387V38.952H85.6387V39.952ZM84.7268 44.992L83.9699 44.3384L83.9675 44.3412L84.7268 44.992ZM68.9827 44.992L68.2088 45.6252L68.2245 45.6445L68.2412 45.6629L68.9827 44.992ZM71.9587 35.44H70.9587V37.2508L72.4913 36.2864L71.9587 35.44ZM81.7988 29.248L82.3313 30.0944L82.7988 29.8002V29.248H81.7988ZM81.7988 25.264H82.7988V24.264H81.7988V25.264ZM71.9587 25.264V24.264H70.9587V25.264H71.9587ZM69.1188 26.704C69.1188 25.2844 69.4859 24.401 70.0477 23.861C70.6169 23.3139 71.5592 22.952 73.0628 22.952V20.952C71.2703 20.952 69.7406 21.3821 68.6618 22.419C67.5756 23.463 67.1188 24.9556 67.1188 26.704H69.1188ZM73.0628 22.952H81.1748V20.952H73.0628V22.952ZM81.1748 22.952C82.6544 22.952 83.4956 23.2464 83.9291 23.6208L85.2364 22.1072C84.2619 21.2656 82.8311 20.952 81.1748 20.952V22.952ZM83.9291 23.6208C84.294 23.9359 84.6387 24.6753 84.6387 26.224H86.6387C86.6387 24.5086 86.2795 23.0081 85.2364 22.1072L83.9291 23.6208ZM84.6387 26.224V30.688H86.6387V26.224H84.6387ZM85.1048 29.8425L71.4248 38.4825L72.4927 40.1735L86.1727 31.5335L85.1048 29.8425ZM70.9587 39.328V42.736H72.9587V39.328H70.9587ZM71.9587 43.736H81.8467V41.736H71.9587V43.736ZM82.8467 42.736V39.952H80.8467V42.736H82.8467ZM81.8467 40.952H85.6387V38.952H81.8467V40.952ZM84.6387 39.952V42.496H86.6387V39.952H84.6387ZM84.6387 42.496C84.6387 43.2244 84.4156 43.8223 83.9699 44.3384L85.4836 45.6456C86.2539 44.7537 86.6387 43.6876 86.6387 42.496H84.6387ZM83.9675 44.3412C83.6661 44.6928 83.0444 45 81.7988 45V47C83.3051 47 84.6354 46.6352 85.486 45.6428L83.9675 44.3412ZM81.7988 45H71.9587V47H81.7988V45ZM71.9587 45C70.719 45 70.0628 44.6953 69.7243 44.3211L68.2412 45.6629C69.1187 46.6327 70.4465 47 71.9587 47V45ZM69.7567 44.3588C69.3354 43.8438 69.1188 43.239 69.1188 42.496H67.1188C67.1188 43.673 67.4781 44.7322 68.2088 45.6252L69.7567 44.3588ZM69.1188 42.496V26.704H67.1188V42.496H69.1188ZM72.4913 36.2864L82.3313 30.0944L81.2662 28.4016L71.4262 34.5936L72.4913 36.2864ZM82.7988 29.248V25.264H80.7988V29.248H82.7988ZM81.7988 24.264H71.9587V26.264H81.7988V24.264ZM70.9587 25.264V35.44H72.9587V25.264H70.9587ZM90.9593 44.896L90.2067 45.5545L90.2136 45.5625L90.2208 45.5703L90.9593 44.896ZM90.8152 23.2L90.0191 22.5949L90.0153 22.6L90.8152 23.2ZM106.847 23.2L106.051 23.8051L106.057 23.813L106.063 23.8207L106.847 23.2ZM106.751 44.896L107.49 45.5703L107.497 45.5625L107.504 45.5545L106.751 44.896ZM93.8392 42.736H92.8392V43.736H93.8392V42.736ZM103.871 42.736V43.736H104.871V42.736H103.871ZM103.871 25.264H104.871V24.264H103.871V25.264ZM93.8392 25.264V24.264H92.8392V25.264H93.8392ZM94.4153 45C92.8911 45 92.0887 44.6499 91.6977 44.2217L90.2208 45.5703C91.1738 46.6141 92.6754 47 94.4153 47V45ZM91.7118 44.2375C91.2442 43.7031 90.9512 42.9079 90.9512 41.728H88.9512C88.9512 43.2361 89.3303 44.5529 90.2067 45.5545L91.7118 44.2375ZM90.9512 41.728V26.272H88.9512V41.728H90.9512ZM90.9512 26.272C90.9512 25.1367 91.2063 24.3452 91.6152 23.8L90.0153 22.6C89.2722 23.5908 88.9512 24.8473 88.9512 26.272H90.9512ZM91.6114 23.8051C91.9232 23.3948 92.7012 23 94.4153 23V21C92.5453 21 90.9233 21.4052 90.0191 22.5949L91.6114 23.8051ZM94.4153 23H103.295V21H94.4153V23ZM103.295 23C104.97 23 105.737 23.3914 106.051 23.8051L107.643 22.5949C106.742 21.4086 105.141 21 103.295 21V23ZM106.063 23.8207C106.494 24.3643 106.759 25.1477 106.759 26.272H108.759C108.759 24.8363 108.417 23.5717 107.631 22.5793L106.063 23.8207ZM106.759 26.272V41.728H108.759V26.272H106.759ZM106.759 41.728C106.759 42.9079 106.466 43.7031 105.999 44.2375L107.504 45.5545C108.38 44.5529 108.759 43.2361 108.759 41.728H106.759ZM106.013 44.2217C105.622 44.6499 104.819 45 103.295 45V47C105.035 47 106.537 46.6141 107.49 45.5703L106.013 44.2217ZM103.295 45H94.4153V47H103.295V45ZM93.8392 43.736H103.871V41.736H93.8392V43.736ZM104.871 42.736V25.264H102.871V42.736H104.871ZM103.871 24.264H93.8392V26.264H103.871V24.264ZM92.8392 25.264V42.736H94.8392V25.264H92.8392ZM131.96 42.736H130.96V43.736H131.96V42.736ZM135.031 42.736H136.031V41.736H135.031V42.736ZM135.031 46V47H136.031V46H135.031ZM125.768 46H124.768V47H125.768V46ZM125.768 42.736V41.736H124.768V42.736H125.768ZM128.072 42.736V43.736H129.072V42.736H128.072ZM128.072 24.88H129.072V23.0709L127.54 24.0332L128.072 24.88ZM118.52 30.88L117.988 30.0332L117.52 30.3272V30.88H118.52ZM118.52 42.736H117.52V43.736H118.52V42.736ZM120.871 42.736H121.871V41.736H120.871V42.736ZM120.871 46V47H121.871V46H120.871ZM111.607 46H110.607V47H111.607V46ZM111.607 42.736V41.736H110.607V42.736H111.607ZM114.632 42.736V43.736H115.632V42.736H114.632ZM114.632 25.216H115.632V24.216H114.632V25.216ZM111.607 25.216H110.607V26.216H111.607V25.216ZM111.607 22V21H110.607V22H111.607ZM118.52 22H119.52V21H118.52V22ZM118.52 26.992H117.52V28.7986L119.05 27.8394L118.52 26.992ZM126.488 22L125.957 21.152L125.957 21.1526L126.488 22ZM128.215 22.52C129.313 22.52 129.951 22.7905 130.321 23.1557C130.688 23.5185 130.96 24.1414 130.96 25.216H132.96C132.96 23.8266 132.607 22.6015 131.726 21.7323C130.848 20.8655 129.614 20.52 128.215 20.52V22.52ZM130.96 25.216V42.736H132.96V25.216H130.96ZM131.96 43.736H135.031V41.736H131.96V43.736ZM134.031 42.736V46H136.031V42.736H134.031ZM135.031 45H125.768V47H135.031V45ZM126.768 46V42.736H124.768V46H126.768ZM125.768 43.736H128.072V41.736H125.768V43.736ZM129.072 42.736V24.88H127.072V42.736H129.072ZM127.54 24.0332L117.988 30.0332L119.051 31.7268L128.603 25.7268L127.54 24.0332ZM117.52 30.88V42.736H119.52V30.88H117.52ZM118.52 43.736H120.871V41.736H118.52V43.736ZM119.871 42.736V46H121.871V42.736H119.871ZM120.871 45H111.607V47H120.871V45ZM112.607 46V42.736H110.607V46H112.607ZM111.607 43.736H114.632V41.736H111.607V43.736ZM115.632 42.736V25.216H113.632V42.736H115.632ZM114.632 24.216H111.607V26.216H114.632V24.216ZM112.607 25.216V22H110.607V25.216H112.607ZM111.607 23H118.52V21H111.607V23ZM117.52 22V26.992H119.52V22H117.52ZM119.05 27.8394L127.018 22.8474L125.957 21.1526L117.989 26.1446L119.05 27.8394ZM127.018 22.848C127.361 22.6334 127.751 22.52 128.215 22.52V20.52C127.4 20.52 126.638 20.7266 125.957 21.152L127.018 22.848Z" fill="black" mask="url(#path-2-outside-1_27_13)"/>
<path d="M232.88 41.632V37.984L254.528 27.568V30.88L236.384 39.808L254.528 48.784V52.096L232.88 41.632ZM277.518 27.568L299.166 37.984V41.632L277.518 52.096V48.784L295.662 39.808L277.518 30.88V27.568Z" fill="white"/>
<path d="M272.145 16.24H275.841L259.953 65.2H256.209L272.145 16.24Z" fill="#FF0202"/>
</svg>
