<svg width="95" height="69" viewBox="0 0 95 69" fill="none" xmlns="http://www.w3.org/2000/svg">
<path d="M15.75 68.25V57.75H5.25V68.25H0V42H5.25V52.5H15.75V42H21V68.25H15.75ZM31.5 68.25V47.25H24.15V42H43.575V47.25H36.75V68.25H31.5ZM47.25 68.25V42H52.5L59.85 59.85H60.375L68.25 42H73.5V68.25H68.25V51.975H67.725L61.95 65.1H58.8L53.025 51.975H52.5V68.25H47.25ZM94.5 68.25H78.75V42H84V63H94.5V68.25ZM44.1 6.3L32.025 18.375L44.1 30.45L40.95 36.75L22.575 18.375L40.95 0L44.1 6.3ZM50.4 30.45L62.475 18.375L50.4 6.3L53.55 0L71.925 18.375L53.55 36.75L50.4 30.45Z" fill="#98F348"/>
</svg>
