<svg width="57" height="65" viewBox="0 0 57 65" fill="none" xmlns="http://www.w3.org/2000/svg">
<path d="M0.653446 1.13733L5.68286 57.5513L28.2529 63.8179L50.884 57.544L55.9183 1.13977H0.651001L0.653446 1.13733ZM21.5046 15.7463L20.5046 26.6047L44.1504 26.6071L43.9817 28.4653L42.3558 46.6808L42.2531 47.8495L28.0622 51.7835L13.8908 47.8495L12.9226 36.9863H19.8664L20.3603 42.5047L28.0719 44.5829L35.7884 42.4998L36.5904 33.5265L12.9446 33.5241L13.1133 31.6659L14.7392 13.4505L15.2502 8.35015H42.8472L43.1675 12.2573L44.1528 23.145H37.2065L36.5659 16.0006L29.5023 15.5752H28.2431V15.5654L21.507 15.7463H21.5046Z" fill="#F7FE28"/>
</svg>
