<svg width="65" height="65" viewBox="0 0 65 65" fill="none" xmlns="http://www.w3.org/2000/svg">
<path d="M32.5015 39.1784C35.8505 39.1784 38.5655 36.1257 38.5655 32.36C38.5655 28.5943 35.8505 25.5416 32.5015 25.5416C29.1524 25.5416 26.4375 28.5943 26.4375 32.36C26.4375 36.1257 29.1524 39.1784 32.5015 39.1784Z" fill="#00D8FF"/>
<path fill-rule="evenodd" clip-rule="evenodd" d="M32.947 17.9878C43.2861 18.067 54.5663 18.9151 62.3095 26.679C62.537 26.9074 62.7564 27.1449 62.9703 27.3901C64.7971 29.4837 65.7518 32.864 64.2771 35.6458C61.2519 41.3572 54.4864 43.8483 47.9363 45.3816C38.1402 47.6747 27.8972 47.6929 18.1052 45.6739C12.4705 44.5106 6.7085 42.4718 2.70421 38.2069C1.14556 36.5472 -0.186951 34.3638 0.0215919 31.9336C0.360135 28.0022 3.71442 25.4792 6.53787 23.7708C14.3799 19.0262 23.9349 17.9649 32.947 17.9878ZM32.1967 19.7738C22.4142 19.8484 11.8259 20.5504 4.27234 27.5835C4.00828 27.8286 3.75369 28.0859 3.50859 28.3554C3.35015 28.529 3.19713 28.7102 3.04952 28.896C1.72379 30.5709 1.26743 33.2614 2.51869 35.2728C3.77807 37.2964 5.69016 38.7566 7.65913 39.9473C15.0231 44.3995 23.725 45.1897 32.2089 45.2232C40.7985 45.2582 49.6561 44.3782 57.2435 39.9671C60.266 38.2084 63.6677 35.626 63.5472 32.3006C63.4362 29.2492 60.7901 27.3642 58.809 26.0182C58.2727 25.6543 57.7216 25.3178 57.1623 25.0011C49.6304 20.7575 40.8039 19.7525 32.1967 19.7738Z" fill="#00D8FF"/>
<path fill-rule="evenodd" clip-rule="evenodd" d="M46.1975 0.000919561C49.9797 0.109027 51.9392 5.22205 52.1979 8.99819C52.2493 9.74885 52.2683 10.5026 52.2602 11.2563C52.252 12.0724 52.2128 12.8885 52.1491 13.7016C51.3515 23.7693 47.2633 33.3574 42.4492 42.2115C37.7407 50.8723 31.999 59.5087 24.1882 63.5223C21.6058 64.8501 18.5345 65.6693 16.2486 64.1877C13.1151 62.1581 12.7725 57.4105 12.8307 53.8094C12.8456 52.9248 12.8971 52.0401 12.9783 51.1585C14.1822 38.1247 20.0579 25.7777 27.4111 15.1405C31.7011 8.93424 36.805 2.77821 43.1628 0.549069C44.1636 0.197339 44.9585 -0.0158295 46.1975 0.000919561ZM46.0161 1.78545C41.5757 1.86463 37.5891 5.56464 34.0587 9.4093C24.7772 19.5151 17.9373 32.9554 15.1856 47.0504C14.973 48.1422 14.7943 49.2415 14.6629 50.3485C14.5613 51.2057 14.4869 52.0675 14.4476 52.9324C14.4164 53.6206 14.4056 54.3104 14.4246 55.0001C14.4381 55.5392 14.4693 56.0782 14.5221 56.6141C14.5613 57.0237 14.6142 57.4318 14.6805 57.8368C14.7306 58.1368 14.7888 58.4352 14.8566 58.7321C14.9121 58.9727 14.9744 59.2118 15.0448 59.4493C15.5986 61.3267 17.0259 63.1204 18.9421 63.1797C23.4122 63.3168 27.621 59.6518 31.2597 55.6686C37.6473 48.6781 42.4072 39.894 46.1258 30.6608C49.1266 23.2059 51.8715 15.1024 50.3386 6.89695C50.2804 6.58633 50.2127 6.27876 50.1355 5.97423C50.0718 5.72604 50.0001 5.48089 49.9215 5.23879C49.3257 3.41315 47.9241 1.78088 46.0161 1.78545Z" fill="#00D8FF"/>
<path fill-rule="evenodd" clip-rule="evenodd" d="M19.1059 0.0679454C23.9322 0.173007 28.2669 3.85627 32.1154 7.9811C39.1382 15.5075 44.3179 25.0818 48.2477 35.1587C51.2919 42.9652 54.0923 51.728 51.6034 59.9655C50.8193 62.5616 48.8354 64.9369 46.1907 64.9978C41.3414 65.1074 36.8469 61.1425 32.9469 56.8745C23.163 46.1643 15.8992 32.0251 13.4102 17.0301C13.2315 15.9582 13.0893 14.8771 12.9918 13.7915C12.9119 12.9053 12.8618 12.0146 12.8483 11.1238C12.8374 10.4051 12.851 9.68645 12.8957 8.97081C12.9255 8.4927 12.9688 8.01764 13.027 7.5441C13.0825 7.09949 13.153 6.6564 13.241 6.21788C13.2992 5.92706 13.3642 5.63928 13.4387 5.35302C14.1686 2.5468 16.0671 0.0466285 19.1059 0.0679454ZM18.9231 1.854C16.0969 1.92404 14.8037 5.67125 14.5437 8.30085C14.4909 8.83986 14.4584 9.38345 14.4435 9.92703C14.4245 10.6214 14.4326 11.3172 14.4638 12.0115C14.908 22.0594 18.9028 31.7738 23.7236 40.6691C28.2628 49.0436 33.7445 57.3846 41.2846 61.6724C43.4621 62.9103 46.1081 63.8832 47.9891 62.7139C50.348 61.246 50.6378 57.7485 50.7638 55.1418C50.7976 54.4322 50.8017 53.7196 50.7814 53.0086C50.757 52.1163 50.6947 51.2256 50.6013 50.3394C49.7319 42.0608 46.471 34.2268 42.7254 26.8237C38.0643 17.6148 32.3538 8.43637 24.2721 3.64158C22.5983 2.64882 20.7864 1.83725 18.9231 1.854Z" fill="#00D8FF"/>
</svg>
